<svg width="140" height="50" viewBox="0 0 140 50" fill="none" xmlns="http://www.w3.org/2000/svg">
<circle cx="25" cy="25" r="25" fill="#008D2D"/>
<path d="M12.8564 38.5721V28.0661M26.121 17.56H12.8564V28.0661M12.8564 28.0661L30.5126 30.9144L26.121 12.1436M26.121 12.1436C26.121 12.1436 16.9792 35.8639 26.121 35.9573M26.121 12.1436H16.9792H36.4279" stroke="white" stroke-width="3"/>
<path d="M63.8789 14.5938V34.5H59.7773V14.5938H63.8789ZM71.8086 23.0977V26.2969H62.7578V23.0977H71.8086ZM72.7656 14.5938V17.8066H62.7578V14.5938H72.7656ZM82.418 31.1641V24.5742C82.418 24.1003 82.3405 23.6947 82.1855 23.3574C82.0306 23.0111 81.7891 22.7422 81.4609 22.5508C81.1419 22.3594 80.7272 22.2637 80.2168 22.2637C79.7793 22.2637 79.401 22.3411 79.082 22.4961C78.763 22.6419 78.5169 22.8561 78.3438 23.1387C78.1706 23.4121 78.084 23.7357 78.084 24.1094H74.1465C74.1465 23.4805 74.2923 22.8835 74.584 22.3184C74.8757 21.7533 75.2995 21.2565 75.8555 20.8281C76.4115 20.3906 77.0723 20.0488 77.8379 19.8027C78.6126 19.5566 79.4785 19.4336 80.4355 19.4336C81.584 19.4336 82.6048 19.625 83.498 20.0078C84.3913 20.3906 85.0931 20.9648 85.6035 21.7305C86.123 22.4961 86.3828 23.4531 86.3828 24.6016V30.9316C86.3828 31.7428 86.4329 32.4082 86.5332 32.9277C86.6335 33.4382 86.7793 33.8848 86.9707 34.2676V34.5H82.9922C82.8008 34.099 82.6549 33.5977 82.5547 32.9961C82.4635 32.3854 82.418 31.7747 82.418 31.1641ZM82.9375 25.4902L82.9648 27.7188H80.7637C80.2441 27.7188 79.793 27.778 79.4102 27.8965C79.0273 28.015 78.7129 28.1836 78.4668 28.4023C78.2207 28.612 78.0384 28.8581 77.9199 29.1406C77.8105 29.4232 77.7559 29.7331 77.7559 30.0703C77.7559 30.4076 77.8333 30.7129 77.9883 30.9863C78.1432 31.2507 78.3665 31.4603 78.6582 31.6152C78.9499 31.7611 79.2917 31.834 79.6836 31.834C80.276 31.834 80.791 31.7155 81.2285 31.4785C81.666 31.2415 82.0033 30.9499 82.2402 30.6035C82.4863 30.2572 82.6139 29.929 82.623 29.6191L83.6621 31.2871C83.5163 31.6608 83.3158 32.0482 83.0605 32.4492C82.8145 32.8503 82.5 33.2285 82.1172 33.584C81.7344 33.9303 81.2741 34.2174 80.7363 34.4453C80.1986 34.6641 79.5605 34.7734 78.8223 34.7734C77.8835 34.7734 77.0312 34.5866 76.2656 34.2129C75.5091 33.8301 74.9076 33.306 74.4609 32.6406C74.0234 31.9661 73.8047 31.2005 73.8047 30.3438C73.8047 29.569 73.9505 28.8809 74.2422 28.2793C74.5339 27.6777 74.9622 27.1719 75.5273 26.7617C76.1016 26.3424 76.8171 26.028 77.6738 25.8184C78.5306 25.5996 79.5241 25.4902 80.6543 25.4902H82.9375ZM93.3555 22.9336V34.5H89.418V19.707H93.123L93.3555 22.9336ZM97.8125 19.6113L97.7441 23.2617C97.5527 23.2344 97.3203 23.2116 97.0469 23.1934C96.7826 23.166 96.541 23.1523 96.3223 23.1523C95.7663 23.1523 95.2832 23.2253 94.873 23.3711C94.472 23.5078 94.1348 23.7129 93.8613 23.9863C93.597 24.2598 93.3965 24.5924 93.2598 24.9844C93.1322 25.3763 93.0592 25.8229 93.041 26.3242L92.248 26.0781C92.248 25.1211 92.3438 24.2415 92.5352 23.4395C92.7266 22.6283 93.0046 21.9219 93.3691 21.3203C93.7428 20.7188 94.1986 20.2539 94.7363 19.9258C95.2741 19.5977 95.8893 19.4336 96.582 19.4336C96.8008 19.4336 97.0241 19.4518 97.252 19.4883C97.4798 19.5156 97.6667 19.5566 97.8125 19.6113ZM103.609 22.7695V34.5H99.6582V19.707H103.363L103.609 22.7695ZM103.062 26.584H101.969C101.969 25.554 102.092 24.6061 102.338 23.7402C102.593 22.8652 102.962 22.1087 103.445 21.4707C103.938 20.8236 104.544 20.3223 105.264 19.9668C105.984 19.6113 106.818 19.4336 107.766 19.4336C108.422 19.4336 109.023 19.5339 109.57 19.7344C110.117 19.9258 110.587 20.2311 110.979 20.6504C111.38 21.0605 111.689 21.5983 111.908 22.2637C112.127 22.9199 112.236 23.7083 112.236 24.6289V34.5H108.299V25.0664C108.299 24.3919 108.208 23.8724 108.025 23.5078C107.843 23.1432 107.583 22.888 107.246 22.7422C106.918 22.5964 106.521 22.5234 106.057 22.5234C105.546 22.5234 105.1 22.6283 104.717 22.8379C104.343 23.0475 104.033 23.3392 103.787 23.7129C103.541 24.0775 103.359 24.5059 103.24 24.998C103.122 25.4902 103.062 26.0189 103.062 26.584ZM111.867 26.1328L110.459 26.3105C110.459 25.3444 110.577 24.4466 110.814 23.6172C111.061 22.7878 111.421 22.0586 111.895 21.4297C112.378 20.8008 112.975 20.3132 113.686 19.9668C114.396 19.6113 115.217 19.4336 116.146 19.4336C116.857 19.4336 117.505 19.5384 118.088 19.748C118.671 19.9486 119.168 20.2721 119.578 20.7188C119.997 21.1562 120.316 21.7305 120.535 22.4414C120.763 23.1523 120.877 24.0228 120.877 25.0527V34.5H116.926V25.0527C116.926 24.3691 116.835 23.8496 116.652 23.4941C116.479 23.1296 116.224 22.8789 115.887 22.7422C115.559 22.5964 115.167 22.5234 114.711 22.5234C114.237 22.5234 113.822 22.6191 113.467 22.8105C113.111 22.9928 112.815 23.248 112.578 23.5762C112.341 23.9043 112.163 24.2871 112.045 24.7246C111.926 25.153 111.867 25.6224 111.867 26.1328Z" fill="white"/>
<path d="M133.072 14.5938V34.5H128.984V14.5938H133.072ZM139.197 14.5938V17.8066H122.955V14.5938H139.197Z" fill="#008D2D"/>
</svg>
