<svg width="64" height="52" viewBox="0 0 64 52" fill="none" xmlns="http://www.w3.org/2000/svg">
<path d="M0.0078125 51.2656V36.7148C0.0078125 32.4831 0.821615 28.1211 2.44922 23.6289C4.07682 19.1367 6.22526 14.9049 8.89453 10.9336C11.5638 6.89714 14.4935 3.47917 17.6836 0.679688L30.7695 8.29688C28.4258 12.2031 26.4076 16.4023 24.7148 20.8945C23.0221 25.3867 22.1758 30.6602 22.1758 36.7148V51.2656H0.0078125ZM33.2109 51.2656V36.7148C33.2109 32.4831 34.0247 28.1211 35.6523 23.6289C37.2799 19.1367 39.4284 14.9049 42.0977 10.9336C44.7669 6.89714 47.6966 3.47917 50.8867 0.679688L63.9727 8.29688C61.6289 12.2031 59.6107 16.4023 57.918 20.8945C56.2253 25.3867 55.3789 30.6602 55.3789 36.7148V51.2656H33.2109Z" fill="#008D2D"/>
</svg>
